<svg width="14" height="14" viewBox="0 0 14 14" fill="none" xmlns="http://www.w3.org/2000/svg">
<path d="M7.83333 1.16667C7.83333 0.706429 7.46024 0.333333 7 0.333333C6.53976 0.333333 6.16667 0.706429 6.16667 1.16667V6.16667H1.16667C0.706429 6.16667 0.333333 6.53976 0.333333 7C0.333333 7.46024 0.706429 7.83333 1.16667 7.83333H6.16667V12.8333C6.16667 13.2936 6.53976 13.6667 7 13.6667C7.46024 13.6667 7.83333 13.2936 7.83333 12.8333V7.83333H12.8333C13.2936 7.83333 13.6667 7.46024 13.6667 7C13.6667 6.53976 13.2936 6.16667 12.8333 6.16667H7.83333V1.16667Z" fill="#2E3238"/>
</svg>
