<svg width="20" height="20" viewBox="0 0 20 20" fill="none" xmlns="http://www.w3.org/2000/svg">
<path fill-rule="evenodd" clip-rule="evenodd" d="M4.16667 18.3333C2.78595 18.3333 1.66667 17.214 1.66667 15.8333V4.16667C1.66667 2.78595 2.78595 1.66667 4.16667 1.66667H15.8333C17.214 1.66667 18.3333 2.78595 18.3333 4.16667V15.8333C18.3333 17.214 17.214 18.3333 15.8333 18.3333H4.16667ZM3.33333 4.16667C3.33333 3.70643 3.70643 3.33333 4.16667 3.33333H6.66667V16.6667H4.16667C3.70643 16.6667 3.33333 16.2936 3.33333 15.8333V4.16667ZM8.33333 16.6667V3.33333H15.8333C16.2936 3.33333 16.6667 3.70643 16.6667 4.16667V15.8333C16.6667 16.2936 16.2936 16.6667 15.8333 16.6667H8.33333Z" fill="#2E3238"/>
</svg>
