<svg width="10" height="10" viewBox="0 0 10 10" fill="none" xmlns="http://www.w3.org/2000/svg">
<path d="M9.47141 1.4714C9.73176 1.21105 9.73176 0.788945 9.47141 0.528596C9.21106 0.268246 8.78894 0.268246 8.52859 0.528596L5 4.05719L1.4714 0.528596C1.21105 0.268246 0.788945 0.268246 0.528596 0.528596C0.268246 0.788945 0.268246 1.21105 0.528596 1.4714L4.05719 5L0.528596 8.52859C0.268246 8.78894 0.268246 9.21106 0.528596 9.47141C0.788945 9.73176 1.21105 9.73176 1.4714 9.47141L5 5.94281L8.52859 9.47141C8.78894 9.73176 9.21106 9.73176 9.47141 9.47141C9.73176 9.21106 9.73176 8.78894 9.47141 8.52859L5.94281 5L9.47141 1.4714Z" fill="#2E3238"/>
</svg>
